<svg width="64" height="64" viewBox="0 0 64 64" fill="none" xmlns="http://www.w3.org/2000/svg">
<path fill-rule="evenodd" clip-rule="evenodd" d="M2 14.2305C2 12.7117 3.23122 11.4805 4.75 11.4805H59.25C60.7688 11.4805 62 12.7117 62 14.2305V45.9805C62 47.4992 60.7688 48.7305 59.25 48.7305H57.5229L59.3621 51.3284C59.6015 51.6664 59.5214 52.1345 59.1834 52.3738C58.8453 52.6132 58.3772 52.5331 58.1379 52.1951L55.6851 48.7305H8.8187C8.78817 48.7766 8.74613 48.8398 8.69328 48.9186C8.57428 49.0961 8.40038 49.353 8.17942 49.6726C7.73763 50.3116 7.10693 51.2025 6.35 52.2117C6.10147 52.5431 5.63137 52.6102 5.3 52.3617C4.96863 52.1132 4.90147 51.6431 5.15 51.3117C5.89307 50.321 6.51237 49.4462 6.94558 48.8196L7.00709 48.7305H4.75C3.23122 48.7305 2 47.4993 2 45.9805V14.2305ZM4.75 12.9805C4.05964 12.9805 3.5 13.5401 3.5 14.2305V45.9805C3.5 46.6708 4.05964 47.2305 4.75 47.2305H59.25C59.9404 47.2305 60.5 46.6708 60.5 45.9805V14.2305C60.5 13.5401 59.9404 12.9805 59.25 12.9805H4.75Z" fill="black"/>
<path d="M16.1971 26.9354H17.7811V31.9034C17.7811 33.0074 17.5171 33.8194 16.9891 34.3394C16.4691 34.8594 15.6531 35.1194 14.5411 35.1194C13.4211 35.1194 12.5971 34.8594 12.0691 34.3394C11.5491 33.8194 11.2891 33.0074 11.2891 31.9034V26.9354H12.8731V32.0834C12.8731 32.6834 13.0091 33.1274 13.2811 33.4154C13.5611 33.6954 13.9811 33.8354 14.5411 33.8354C15.0931 33.8354 15.5051 33.6954 15.7771 33.4154C16.0571 33.1274 16.1971 32.6834 16.1971 32.0834V26.9354ZM26.1619 26.9354V34.9994H24.5779V31.4234H21.1699V34.9994H19.5859V26.9354H21.1699V30.1394H24.5779V26.9354H26.1619ZM34.7208 30.9674C34.7208 32.3354 34.3568 33.3514 33.6288 34.0154C32.9088 34.6714 31.8728 34.9994 30.5208 34.9994H27.9648V26.9354H30.5208C31.8648 26.9354 32.9008 27.2714 33.6288 27.9434C34.3568 28.6074 34.7208 29.6154 34.7208 30.9674ZM29.5488 28.2194V33.7154H30.5088C31.3328 33.7154 31.9768 33.4954 32.4408 33.0554C32.9048 32.6154 33.1368 31.9194 33.1368 30.9674C33.1368 30.0154 32.9048 29.3194 32.4408 28.8794C31.9768 28.4394 31.3328 28.2194 30.5088 28.2194H29.5488ZM42.2547 26.8154C42.6867 26.8154 43.0787 26.8674 43.4307 26.9714C43.7827 27.0754 44.0827 27.2274 44.3307 27.4274C44.5867 27.6194 44.7827 27.8554 44.9187 28.1354C45.0627 28.4074 45.1347 28.7154 45.1347 29.0594C45.1347 29.4594 45.0267 29.8154 44.8107 30.1274C44.6027 30.4314 44.3467 30.6634 44.0427 30.8234C44.2187 30.8954 44.3827 30.9954 44.5347 31.1234C44.6947 31.2514 44.8347 31.3994 44.9547 31.5674C45.0747 31.7354 45.1667 31.9234 45.2307 32.1314C45.3027 32.3314 45.3387 32.5434 45.3387 32.7674C45.3387 33.1274 45.2627 33.4514 45.1107 33.7394C44.9667 34.0274 44.7587 34.2714 44.4867 34.4714C44.2147 34.6714 43.8907 34.8274 43.5147 34.9394C43.1387 35.0434 42.7187 35.0954 42.2547 35.0954C41.7907 35.0954 41.3667 35.0434 40.9827 34.9394C40.6067 34.8274 40.2827 34.6714 40.0107 34.4714C39.7467 34.2714 39.5387 34.0274 39.3867 33.7394C39.2427 33.4514 39.1707 33.1274 39.1707 32.7674C39.1707 32.5434 39.2027 32.3314 39.2667 32.1314C39.3387 31.9234 39.4347 31.7354 39.5547 31.5674C39.6747 31.3994 39.8107 31.2514 39.9627 31.1234C40.1227 30.9954 40.2907 30.8954 40.4667 30.8234C40.1627 30.6634 39.9027 30.4314 39.6867 30.1274C39.4787 29.8154 39.3747 29.4594 39.3747 29.0594C39.3747 28.7154 39.4427 28.4074 39.5787 28.1354C39.7227 27.8554 39.9187 27.6194 40.1667 27.4274C40.4227 27.2274 40.7267 27.0754 41.0787 26.9714C41.4307 26.8674 41.8227 26.8154 42.2547 26.8154ZM42.2547 33.8954C42.5027 33.8954 42.7267 33.8634 42.9267 33.7994C43.1267 33.7354 43.2947 33.6474 43.4307 33.5354C43.5667 33.4234 43.6707 33.2954 43.7427 33.1514C43.8147 32.9994 43.8507 32.8394 43.8507 32.6714C43.8507 32.5034 43.8147 32.3474 43.7427 32.2034C43.6707 32.0514 43.5667 31.9194 43.4307 31.8074C43.2947 31.6954 43.1267 31.6074 42.9267 31.5434C42.7267 31.4714 42.4987 31.4354 42.2427 31.4354C41.9947 31.4354 41.7707 31.4714 41.5707 31.5434C41.3787 31.6074 41.2147 31.6954 41.0787 31.8074C40.9427 31.9194 40.8387 32.0514 40.7667 32.2034C40.6947 32.3474 40.6587 32.5034 40.6587 32.6714C40.6587 32.8394 40.6947 32.9994 40.7667 33.1514C40.8387 33.2954 40.9427 33.4234 41.0787 33.5354C41.2147 33.6474 41.3787 33.7354 41.5707 33.7994C41.7707 33.8634 41.9987 33.8954 42.2547 33.8954ZM42.2547 30.2594C42.4707 30.2594 42.6627 30.2274 42.8307 30.1634C43.0067 30.0994 43.1547 30.0154 43.2747 29.9114C43.3947 29.7994 43.4867 29.6754 43.5507 29.5394C43.6147 29.4034 43.6467 29.2594 43.6467 29.1074C43.6467 28.9554 43.6147 28.8114 43.5507 28.6754C43.4867 28.5394 43.3947 28.4194 43.2747 28.3154C43.1547 28.2034 43.0067 28.1154 42.8307 28.0514C42.6627 27.9874 42.4707 27.9554 42.2547 27.9554C42.0387 27.9554 41.8427 27.9874 41.6667 28.0514C41.4987 28.1154 41.3547 28.2034 41.2347 28.3154C41.1147 28.4194 41.0227 28.5394 40.9587 28.6754C40.8947 28.8114 40.8627 28.9554 40.8627 29.1074C40.8627 29.2594 40.8947 29.4034 40.9587 29.5394C41.0227 29.6754 41.1147 29.7994 41.2347 29.9114C41.3547 30.0154 41.4987 30.0994 41.6667 30.1634C41.8427 30.2274 42.0387 30.2594 42.2547 30.2594ZM48.334 34.9994H46.75V26.9354H48.334V30.1634H48.838L51.598 26.9354H53.482L50.134 30.7754L53.314 34.9994H51.442L48.838 31.4234H48.334V34.9994Z" fill="black"/>
</svg>
