<svg width="64" height="64" viewBox="0 0 64 64" fill="none" xmlns="http://www.w3.org/2000/svg">
<path fill-rule="evenodd" clip-rule="evenodd" d="M2 14C2 12.4812 3.23122 11.25 4.75 11.25H59.25C60.7688 11.25 62 12.4812 62 14V46C62 47.5188 60.7688 48.75 59.25 48.75H4.75C3.23122 48.75 2 47.5188 2 46V14ZM4.75 12.75C4.05964 12.75 3.5 13.3096 3.5 14V46C3.5 46.6904 4.05964 47.25 4.75 47.25H59.25C59.9404 47.25 60.5 46.6904 60.5 46V14C60.5 13.3096 59.9404 12.75 59.25 12.75H4.75ZM11.25 52C11.25 51.5858 11.5858 51.25 12 51.25H52C52.4142 51.25 52.75 51.5858 52.75 52C52.75 52.4142 52.4142 52.75 52 52.75H12C11.5858 52.75 11.25 52.4142 11.25 52ZM19.6868 33.8307C20.1428 34.0227 20.6908 34.1187 21.3308 34.1187C22.5388 34.1187 23.4428 33.7827 24.0428 33.1107C24.6508 32.4307 24.9548 31.3827 24.9548 29.9667C24.9548 28.5667 24.6468 27.5267 24.0308 26.8467C23.4228 26.1587 22.5228 25.8147 21.3308 25.8147C20.1628 25.8147 19.2628 26.1587 18.6308 26.8467C18.0068 27.5267 17.6948 28.5667 17.6948 29.9667C17.6948 30.5987 17.7628 31.1707 17.8988 31.6827C18.0428 32.1947 18.2628 32.6307 18.5588 32.9907C18.8548 33.3507 19.2308 33.6307 19.6868 33.8307ZM22.8548 27.7587C23.1988 28.1987 23.3708 28.9347 23.3708 29.9667C23.3708 30.4867 23.3268 30.9307 23.2388 31.2987C23.1508 31.6587 23.0228 31.9547 22.8548 32.1867C22.6868 32.4107 22.4748 32.5747 22.2188 32.6787C21.9628 32.7827 21.6668 32.8347 21.3308 32.8347C20.9948 32.8347 20.6988 32.7827 20.4428 32.6787C20.1868 32.5747 19.9708 32.4107 19.7948 32.1867C19.6268 31.9547 19.4988 31.6587 19.4108 31.2987C19.3228 30.9307 19.2788 30.4867 19.2788 29.9667C19.2788 28.9347 19.4508 28.1987 19.7948 27.7587C20.1468 27.3187 20.6588 27.0987 21.3308 27.0987C22.0028 27.0987 22.5108 27.3187 22.8548 27.7587ZM31.5569 33.9987V32.7147H28.0169V25.9347H26.4329V33.9987H31.5569ZM37.9975 33.9987V32.7147H34.1575V30.4227H37.7455V29.1627H34.1575V27.2187H37.8775V25.9347H32.5735V33.9987H37.9975ZM45.2219 33.0147C45.9499 32.3507 46.3139 31.3347 46.3139 29.9667C46.3139 28.6147 45.9499 27.6067 45.2219 26.9427C44.4939 26.2707 43.4579 25.9347 42.1139 25.9347H39.5579V33.9987H42.1139C43.4659 33.9987 44.5019 33.6707 45.2219 33.0147ZM41.1419 32.7147V27.2187H42.1019C42.9259 27.2187 43.5699 27.4387 44.0339 27.8787C44.4979 28.3187 44.7299 29.0147 44.7299 29.9667C44.7299 30.9187 44.4979 31.6147 44.0339 32.0547C43.5699 32.4947 42.9259 32.7147 42.1019 32.7147H41.1419Z" fill="black"/>
</svg>
