<svg width="64" height="64" viewBox="0 0 64 64" fill="none" xmlns="http://www.w3.org/2000/svg">
<path fill-rule="evenodd" clip-rule="evenodd" d="M2 14.2305C2 12.7117 3.23122 11.4805 4.75 11.4805H59.25C60.7688 11.4805 62 12.7117 62 14.2305V45.9805C62 47.4992 60.7688 48.7305 59.25 48.7305H57.5229L59.3621 51.3284C59.6015 51.6664 59.5214 52.1345 59.1834 52.3738C58.8453 52.6132 58.3772 52.5331 58.1379 52.1951L55.6851 48.7305H8.8187C8.78817 48.7766 8.74613 48.8398 8.69328 48.9186C8.57428 49.0961 8.40038 49.353 8.17942 49.6726C7.73763 50.3116 7.10693 51.2025 6.35 52.2117C6.10147 52.5431 5.63137 52.6102 5.3 52.3617C4.96863 52.1132 4.90147 51.6431 5.15 51.3117C5.89307 50.321 6.51237 49.4462 6.94558 48.8196L7.00709 48.7305H4.75C3.23122 48.7305 2 47.4993 2 45.9805V14.2305ZM4.75 12.9805C4.05964 12.9805 3.5 13.5401 3.5 14.2305V45.9805C3.5 46.6708 4.05964 47.2305 4.75 47.2305H59.25C59.9404 47.2305 60.5 46.6708 60.5 45.9805V14.2305C60.5 13.5401 59.9404 12.9805 59.25 12.9805H4.75Z" fill="black"/>
<path d="M16.2674 27.043H17.8514V32.011C17.8514 33.115 17.5874 33.927 17.0594 34.447C16.5394 34.967 15.7234 35.227 14.6114 35.227C13.4914 35.227 12.6674 34.967 12.1394 34.447C11.6194 33.927 11.3594 33.115 11.3594 32.011V27.043H12.9434V32.191C12.9434 32.791 13.0794 33.235 13.3514 33.523C13.6314 33.803 14.0514 33.943 14.6114 33.943C15.1634 33.943 15.5754 33.803 15.8474 33.523C16.1274 33.235 16.2674 32.791 16.2674 32.191V27.043ZM26.2323 27.043V35.107H24.6483V31.531H21.2403V35.107H19.6562V27.043H21.2403V30.247H24.6483V27.043H26.2323ZM34.7912 31.075C34.7912 32.443 34.4272 33.459 33.6992 34.123C32.9792 34.779 31.9432 35.107 30.5912 35.107H28.0352V27.043H30.5912C31.9352 27.043 32.9712 27.379 33.6992 28.051C34.4272 28.715 34.7912 29.723 34.7912 31.075ZM29.6192 28.327V33.823H30.5792C31.4032 33.823 32.0472 33.603 32.5112 33.163C32.9752 32.723 33.2072 32.027 33.2072 31.075C33.2072 30.123 32.9752 29.427 32.5112 28.987C32.0472 28.547 31.4032 28.327 30.5792 28.327H29.6192ZM44.401 27.067V32.203H45.529V33.439H44.401V35.107H42.841V33.439H38.821V32.527L42.721 27.067H44.401ZM42.841 32.203V28.987H42.817L40.609 32.203H42.841ZM48.2754 35.107H46.6914V27.043H48.2754V30.271H48.7794L51.5394 27.043H53.4234L50.0754 30.883L53.2554 35.107H51.3834L48.7794 31.531H48.2754V35.107Z" fill="black"/>
</svg>
