<svg width="64" height="64" viewBox="0 0 64 64" fill="none" xmlns="http://www.w3.org/2000/svg">
<path fill-rule="evenodd" clip-rule="evenodd" d="M2 14C2 12.4812 3.23122 11.25 4.75 11.25H59.25C60.7688 11.25 62 12.4812 62 14V46C62 47.5188 60.7688 48.75 59.25 48.75H4.75C3.23122 48.75 2 47.5188 2 46V14ZM4.75 12.75C4.05964 12.75 3.5 13.3096 3.5 14V46C3.5 46.6904 4.05964 47.25 4.75 47.25H59.25C59.9404 47.25 60.5 46.6904 60.5 46V14C60.5 13.3096 59.9404 12.75 59.25 12.75H4.75ZM13.6064 26.9356H15.1904V31.9036C15.1904 33.0076 14.9264 33.8196 14.3984 34.3396C13.8784 34.8596 13.0624 35.1196 11.9504 35.1196C10.8304 35.1196 10.0064 34.8596 9.47838 34.3396C8.95838 33.8196 8.69838 33.0076 8.69838 31.9036V26.9356H10.2824V32.0836C10.2824 32.6836 10.4184 33.1276 10.6904 33.4156C10.9704 33.6956 11.3904 33.8356 11.9504 33.8356C12.5024 33.8356 12.9144 33.6956 13.1864 33.4156C13.4664 33.1276 13.6064 32.6836 13.6064 32.0836V26.9356ZM18.4953 26.5276V33.2716C18.4953 33.5036 18.5353 33.6556 18.6153 33.7276C18.6953 33.7916 18.8513 33.8236 19.0833 33.8236V35.0836C18.9953 35.0996 18.9193 35.1076 18.8553 35.1076C18.7913 35.1156 18.7033 35.1196 18.5913 35.1196C18.0393 35.1196 17.6233 34.9756 17.3433 34.6876C17.0713 34.3916 16.9353 33.9196 16.9353 33.2716V26.6956L18.4953 26.5276ZM22.1008 30.4396V32.8756C22.1008 33.2596 22.1608 33.5236 22.2808 33.6676C22.4008 33.8036 22.6008 33.8716 22.8808 33.8716C23.0808 33.8716 23.2808 33.8396 23.4808 33.7756C23.6808 33.7036 23.8728 33.6236 24.0568 33.5356L24.3328 34.6756C24.0528 34.8196 23.7488 34.9276 23.4208 34.9996C23.1008 35.0796 22.7848 35.1196 22.4728 35.1196C21.7688 35.1196 21.2688 34.9556 20.9728 34.6276C20.6848 34.2996 20.5408 33.7836 20.5408 33.0796V30.4396H19.6048V29.1916H20.5408V28.0756L22.1008 27.7996V29.1916H24.1288V30.4396H22.1008ZM26.4879 29.1916L26.6319 29.8036C26.8559 29.5716 27.1039 29.3916 27.3759 29.2636C27.6559 29.1356 27.9559 29.0716 28.2759 29.0716C28.4359 29.0716 28.5919 29.0876 28.7439 29.1196C28.8959 29.1516 29.0519 29.2076 29.2119 29.2876V30.5836C29.0599 30.5036 28.9039 30.4396 28.7439 30.3916C28.5919 30.3436 28.4199 30.3196 28.2279 30.3196C27.9559 30.3196 27.6999 30.3756 27.4599 30.4876C27.2279 30.5996 27.0239 30.7356 26.8479 30.8956V34.9996H25.2879V29.1916H26.4879ZM34.6814 34.9996H33.5174L33.3134 34.5556C33.1054 34.7316 32.8614 34.8716 32.5814 34.9756C32.3014 35.0716 31.9934 35.1196 31.6574 35.1196C30.9774 35.1196 30.4734 34.9596 30.1454 34.6396C29.8174 34.3116 29.6534 33.8356 29.6534 33.2116C29.6534 32.5876 29.8574 32.1236 30.2654 31.8196C30.6734 31.5156 31.3414 31.3636 32.2694 31.3636C32.3814 31.3636 32.5094 31.3676 32.6534 31.3756C32.7974 31.3756 32.9534 31.3836 33.1214 31.3996V31.3036C33.1214 30.9436 33.0414 30.6876 32.8814 30.5356C32.7294 30.3756 32.4494 30.2956 32.0414 30.2956C31.7854 30.2956 31.5054 30.3356 31.2014 30.4156C30.9054 30.4876 30.6054 30.6036 30.3014 30.7636L29.8574 29.6716C30.2174 29.4876 30.5854 29.3436 30.9614 29.2396C31.3454 29.1276 31.7534 29.0716 32.1854 29.0716C32.6494 29.0716 33.0414 29.1116 33.3614 29.1916C33.6814 29.2716 33.9374 29.4076 34.1294 29.5996C34.3294 29.7916 34.4694 30.0436 34.5494 30.3556C34.6374 30.6676 34.6814 31.0556 34.6814 31.5196V34.9996ZM31.9934 33.8956C32.1614 33.8956 32.3494 33.8556 32.5574 33.7756C32.7734 33.6956 32.9614 33.5996 33.1214 33.4876V32.5636C32.9934 32.5476 32.8574 32.5356 32.7134 32.5276C32.5694 32.5196 32.4054 32.5156 32.2214 32.5156C31.8374 32.5156 31.5734 32.5676 31.4294 32.6716C31.2854 32.7676 31.2134 32.9356 31.2134 33.1756C31.2134 33.6556 31.4734 33.8956 31.9934 33.8956ZM42.7207 33.7156C43.2007 33.7156 43.5647 33.6236 43.8127 33.4396C44.0607 33.2476 44.1847 32.9716 44.1847 32.6116C44.1847 32.2276 44.0647 31.9356 43.8247 31.7356C43.5847 31.5356 43.2367 31.4356 42.7807 31.4356H41.1847V33.7156H42.7207ZM43.9567 29.1916C43.9567 28.8556 43.8487 28.6116 43.6327 28.4596C43.4167 28.2996 43.1047 28.2196 42.6967 28.2196H41.1847V30.1996H42.7327C43.1407 30.1996 43.4447 30.1076 43.6447 29.9236C43.8527 29.7396 43.9567 29.4956 43.9567 29.1916ZM45.5407 29.0356C45.5407 29.4436 45.4567 29.7876 45.2887 30.0676C45.1207 30.3476 44.8847 30.5636 44.5807 30.7156C44.9647 30.8836 45.2567 31.1276 45.4567 31.4476C45.6647 31.7676 45.7687 32.1556 45.7687 32.6116C45.7687 33.3876 45.5207 33.9796 45.0247 34.3876C44.5287 34.7956 43.8327 34.9996 42.9367 34.9996H39.6007V26.9356H42.7687C43.6887 26.9356 44.3807 27.1156 44.8447 27.4756C45.3087 27.8356 45.5407 28.3556 45.5407 29.0356ZM47.1933 29.1916H48.7533V34.9996H47.1933V29.1916ZM47.1933 26.6956H48.7533V28.0876H47.1933V26.6956ZM55.4789 29.1916V34.9516C55.4789 35.8876 55.2349 36.5636 54.7469 36.9796C54.2669 37.4036 53.5469 37.6156 52.5869 37.6156C52.2269 37.6156 51.8749 37.5836 51.5309 37.5196C51.1949 37.4636 50.8829 37.3796 50.5949 37.2676L50.9069 36.0676C51.1869 36.1716 51.4669 36.2476 51.7469 36.2956C52.0269 36.3516 52.2869 36.3796 52.5269 36.3796C53.0309 36.3796 53.3869 36.2836 53.5949 36.0916C53.8109 35.9076 53.9189 35.5876 53.9189 35.1316V34.6396C53.7589 34.7756 53.5469 34.8916 53.2829 34.9876C53.0189 35.0756 52.7269 35.1196 52.4069 35.1196C51.7029 35.1196 51.1389 34.8756 50.7149 34.3876C50.2989 33.8996 50.0909 33.1356 50.0909 32.0956C50.0909 31.0556 50.3189 30.2916 50.7749 29.8036C51.2309 29.3156 51.8749 29.0716 52.7069 29.0716C53.2749 29.0716 53.7429 29.2436 54.1109 29.5876L54.2909 29.1916H55.4789ZM52.8869 30.2956C52.4789 30.2956 52.1709 30.4316 51.9629 30.7036C51.7549 30.9756 51.6509 31.4396 51.6509 32.0956C51.6509 32.7436 51.7549 33.2076 51.9629 33.4876C52.1789 33.7596 52.4909 33.8956 52.8989 33.8956C53.2749 33.8956 53.6149 33.7796 53.9189 33.5476V30.6316C53.6229 30.4076 53.2789 30.2956 52.8869 30.2956ZM23 51.25C22.5858 51.25 22.25 51.5858 22.25 52C22.25 52.4142 22.5858 52.75 23 52.75H41C41.4142 52.75 41.75 52.4142 41.75 52C41.75 51.5858 41.4142 51.25 41 51.25H23Z" fill="black"/>
</svg>
