<svg width="64" height="64" viewBox="0 0 64 64" fill="none" xmlns="http://www.w3.org/2000/svg">
<path fill-rule="evenodd" clip-rule="evenodd" d="M2 14C2 12.4812 3.23122 11.25 4.75 11.25H59.25C60.7688 11.25 62 12.4812 62 14V46C62 47.5188 60.7688 48.75 59.25 48.75H4.75C3.23122 48.75 2 47.5188 2 46V14ZM4.75 12.75C4.05964 12.75 3.5 13.3096 3.5 14V46C3.5 46.6904 4.05964 47.25 4.75 47.25H59.25C59.9404 47.25 60.5 46.6904 60.5 46V14C60.5 13.3096 59.9404 12.75 59.25 12.75H4.75ZM20.4566 32.8995C20.4566 32.7555 20.4366 32.6315 20.3966 32.5275C20.3646 32.4155 20.2926 32.3115 20.1806 32.2155C20.0686 32.1195 19.9086 32.0275 19.7006 31.9395C19.5006 31.8515 19.2326 31.7555 18.8966 31.6515C18.4006 31.4995 17.9766 31.3395 17.6246 31.1715C17.2806 30.9955 16.9966 30.8035 16.7726 30.5955C16.5566 30.3875 16.3966 30.1595 16.2926 29.9115C16.1966 29.6635 16.1486 29.3875 16.1486 29.0835C16.1486 28.3955 16.4046 27.8475 16.9166 27.4395C17.4366 27.0235 18.2286 26.8155 19.2926 26.8155C19.7486 26.8155 20.1806 26.8795 20.5886 27.0075C20.9966 27.1275 21.3806 27.2915 21.7406 27.4995L21.2006 28.6875C20.8966 28.5035 20.5886 28.3555 20.2766 28.2435C19.9646 28.1315 19.6366 28.0755 19.2926 28.0755C18.7406 28.0755 18.3406 28.1595 18.0926 28.3275C17.8526 28.4875 17.7326 28.7115 17.7326 28.9995C17.7326 29.1355 17.7566 29.2595 17.8046 29.3715C17.8526 29.4835 17.9366 29.5915 18.0566 29.6955C18.1846 29.7995 18.3606 29.9035 18.5846 30.0075C18.8086 30.1035 19.1006 30.2075 19.4606 30.3195C19.8926 30.4555 20.2686 30.5955 20.5886 30.7395C20.9166 30.8835 21.1886 31.0515 21.4046 31.2435C21.6206 31.4355 21.7806 31.6595 21.8846 31.9155C21.9886 32.1635 22.0406 32.4675 22.0406 32.8275C22.0406 33.5555 21.7766 34.1195 21.2486 34.5195C20.7286 34.9195 19.9246 35.1195 18.8366 35.1195C18.2846 35.1195 17.7726 35.0595 17.3006 34.9395C16.8286 34.8115 16.3886 34.6355 15.9806 34.4115L16.4966 33.2355C16.9046 33.4355 17.2926 33.5915 17.6606 33.7035C18.0366 33.8075 18.4166 33.8595 18.8006 33.8595C19.3526 33.8595 19.7646 33.7755 20.0366 33.6075C20.3166 33.4395 20.4566 33.2035 20.4566 32.8995ZM24.619 29.5515C25.163 29.2235 25.727 29.0595 26.311 29.0595C26.647 29.0595 26.939 29.1075 27.187 29.2035C27.435 29.2995 27.635 29.4635 27.787 29.6955C28.051 29.5035 28.335 29.3515 28.639 29.2395C28.943 29.1195 29.279 29.0595 29.647 29.0595C30.327 29.0595 30.803 29.2275 31.075 29.5635C31.355 29.8995 31.495 30.4195 31.495 31.1235V34.9995H29.935V31.3995C29.935 30.9915 29.887 30.7075 29.791 30.5475C29.695 30.3875 29.523 30.3075 29.275 30.3075C29.083 30.3075 28.891 30.3395 28.699 30.4035C28.507 30.4675 28.319 30.5555 28.135 30.6675C28.143 30.7315 28.147 30.8035 28.147 30.8835C28.155 30.9555 28.159 31.0355 28.159 31.1235V34.9995H26.611V31.3995C26.611 30.9915 26.559 30.7075 26.455 30.5475C26.359 30.3875 26.187 30.3075 25.939 30.3075C25.571 30.3075 25.199 30.4195 24.823 30.6435V34.9995H23.263V29.1915H24.427L24.619 29.5515ZM37.6603 34.9995H36.4963L36.2923 34.5555C36.0843 34.7315 35.8403 34.8715 35.5603 34.9755C35.2803 35.0715 34.9723 35.1195 34.6363 35.1195C33.9563 35.1195 33.4523 34.9595 33.1243 34.6395C32.7963 34.3115 32.6323 33.8355 32.6323 33.2115C32.6323 32.5875 32.8363 32.1235 33.2443 31.8195C33.6523 31.5155 34.3203 31.3635 35.2483 31.3635C35.3603 31.3635 35.4883 31.3675 35.6323 31.3755C35.7763 31.3755 35.9323 31.3835 36.1003 31.3995V31.3035C36.1003 30.9435 36.0203 30.6875 35.8603 30.5355C35.7083 30.3755 35.4283 30.2955 35.0203 30.2955C34.7643 30.2955 34.4843 30.3355 34.1803 30.4155C33.8843 30.4875 33.5843 30.6035 33.2803 30.7635L32.8363 29.6715C33.1963 29.4875 33.5643 29.3435 33.9403 29.2395C34.3243 29.1275 34.7323 29.0715 35.1643 29.0715C35.6283 29.0715 36.0203 29.1115 36.3403 29.1915C36.6603 29.2715 36.9163 29.4075 37.1083 29.5995C37.3083 29.7915 37.4483 30.0435 37.5283 30.3555C37.6163 30.6675 37.6603 31.0555 37.6603 31.5195V34.9995ZM34.9723 33.8955C35.1403 33.8955 35.3283 33.8555 35.5363 33.7755C35.7523 33.6955 35.9403 33.5995 36.1003 33.4875V32.5635C35.9723 32.5475 35.8363 32.5355 35.6923 32.5275C35.5483 32.5195 35.3843 32.5155 35.2003 32.5155C34.8163 32.5155 34.5523 32.5675 34.4083 32.6715C34.2643 32.7675 34.1923 32.9355 34.1923 33.1755C34.1923 33.6555 34.4523 33.8955 34.9723 33.8955ZM40.2364 29.1915L40.3804 29.8035C40.6044 29.5715 40.8524 29.3915 41.1244 29.2635C41.4044 29.1355 41.7044 29.0715 42.0244 29.0715C42.1844 29.0715 42.3404 29.0875 42.4924 29.1195C42.6444 29.1515 42.8004 29.2075 42.9604 29.2875V30.5835C42.8084 30.5035 42.6524 30.4395 42.4924 30.3915C42.3404 30.3435 42.1684 30.3195 41.9764 30.3195C41.7044 30.3195 41.4484 30.3755 41.2084 30.4875C40.9764 30.5995 40.7724 30.7355 40.5964 30.8955V34.9995H39.0364V29.1915H40.2364ZM46.0563 30.4395V32.8755C46.0563 33.2595 46.1163 33.5235 46.2363 33.6675C46.3563 33.8035 46.5563 33.8715 46.8363 33.8715C47.0363 33.8715 47.2363 33.8395 47.4363 33.7755C47.6363 33.7035 47.8283 33.6235 48.0123 33.5355L48.2883 34.6755C48.0083 34.8195 47.7043 34.9275 47.3763 34.9995C47.0563 35.0795 46.7403 35.1195 46.4283 35.1195C45.7243 35.1195 45.2243 34.9555 44.9283 34.6275C44.6403 34.2995 44.4963 33.7835 44.4963 33.0795V30.4395H43.5603V29.1915H44.4963V28.0755L46.0563 27.7995V29.1915H48.0843V30.4395H46.0563ZM23 51.2501C22.5858 51.2501 22.25 51.5859 22.25 52.0001C22.25 52.4143 22.5858 52.7501 23 52.7501H41C41.4142 52.7501 41.75 52.4143 41.75 52.0001C41.75 51.5859 41.4142 51.2501 41 51.2501H23Z" fill="black"/>
</svg>
