<svg width="64" height="64" viewBox="0 0 64 64" fill="none" xmlns="http://www.w3.org/2000/svg">
<path fill-rule="evenodd" clip-rule="evenodd" d="M2 12.4688C2 10.95 3.23122 9.71875 4.75 9.71875H59.25C60.7688 9.71875 62 10.95 62 12.4688V44.2188C62 45.7375 60.7688 46.9688 59.25 46.9688H32.75V49.6459L51.6233 52.7915C52.0319 52.8596 52.3079 53.246 52.2398 53.6545C52.1717 54.0631 51.7853 54.3391 51.3767 54.271L32 51.0416L12.6233 54.271C12.2147 54.3391 11.8283 54.0631 11.7602 53.6545C11.6921 53.246 11.9681 52.8596 12.3767 52.7915L31.25 49.6459V46.9688H4.75C3.23122 46.9688 2 45.7375 2 44.2188V12.4688ZM59.25 45.4688H32H4.75C4.05964 45.4688 3.5 44.9091 3.5 44.2188V12.4688C3.5 11.7784 4.05964 11.2188 4.75 11.2188H59.25C59.9404 11.2188 60.5 11.7784 60.5 12.4688V44.2188C60.5 44.9091 59.9404 45.4688 59.25 45.4688ZM24.2099 30.2717C24.2419 29.9517 24.2579 29.6318 24.2579 29.3118C24.2579 27.8878 23.9539 26.8398 23.3459 26.1677C22.7459 25.4958 21.8419 25.1597 20.6339 25.1597C19.4259 25.1597 18.5179 25.4958 17.9099 26.1677C17.3019 26.8398 16.9979 27.8878 16.9979 29.3118C16.9979 30.7358 17.3019 31.7838 17.9099 32.4557C18.5179 33.1278 19.4259 33.4638 20.6339 33.4638C20.9779 33.4638 21.2939 33.4398 21.5819 33.3918L23.2979 35.0597L24.5339 34.2078L22.9619 32.8158C23.2339 32.5918 23.4539 32.3438 23.6219 32.0718C23.7899 31.7917 23.9219 31.5037 24.0179 31.2078C24.1139 30.9038 24.1779 30.5918 24.2099 30.2717ZM22.1579 27.1038C22.5019 27.5438 22.6739 28.2798 22.6739 29.3118C22.6739 29.8318 22.6299 30.2758 22.5419 30.6438C22.4539 31.0037 22.3259 31.2998 22.1579 31.5317C21.9899 31.7558 21.7779 31.9198 21.5219 32.0238C21.2659 32.1278 20.9699 32.1798 20.6339 32.1798C20.2979 32.1798 20.0019 32.1278 19.7459 32.0238C19.4899 31.9198 19.2739 31.7558 19.0979 31.5317C18.9299 31.2998 18.8019 31.0037 18.7139 30.6438C18.6259 30.2758 18.5819 29.8318 18.5819 29.3118C18.5819 28.2798 18.7539 27.5438 19.0979 27.1038C19.4499 26.6637 19.9619 26.4438 20.6339 26.4438C21.3059 26.4438 21.8139 26.6637 22.1579 27.1038ZM30.7519 33.3438H32.4679V25.2797H30.8839V29.8158L30.9199 30.9918H30.8959L30.1639 29.7318L27.4519 25.2797H25.7359V33.3438H27.3199V28.7957L27.2959 27.6077H27.3199L28.0399 28.8678L30.7519 33.3438ZM39.6912 33.3438V32.0597H35.8512V29.7677H39.4392V28.5077H35.8512V26.5638H39.5712V25.2797H34.2672V33.3438H39.6912ZM46.9156 32.3598C47.6436 31.6958 48.0076 30.6798 48.0076 29.3118C48.0076 27.9598 47.6436 26.9517 46.9156 26.2878C46.1876 25.6158 45.1516 25.2797 43.8076 25.2797H41.2516V33.3438H43.8076C45.1596 33.3438 46.1956 33.0158 46.9156 32.3598ZM42.8356 32.0597V26.5638H43.7956C44.6196 26.5638 45.2636 26.7838 45.7276 27.2237C46.1916 27.6637 46.4236 28.3598 46.4236 29.3118C46.4236 30.2638 46.1916 30.9598 45.7276 31.3997C45.2636 31.8398 44.6196 32.0597 43.7956 32.0597H42.8356Z" fill="black"/>
</svg>
