<svg width="64" height="64" viewBox="0 0 64 64" fill="none" xmlns="http://www.w3.org/2000/svg">
<path fill-rule="evenodd" clip-rule="evenodd" d="M2 12.4688C2 10.95 3.23122 9.71875 4.75 9.71875H59.25C60.7688 9.71875 62 10.95 62 12.4688V44.2188C62 45.7375 60.7688 46.9688 59.25 46.9688H32.75V49.6459L51.6233 52.7915C52.0319 52.8596 52.3079 53.246 52.2398 53.6545C52.1717 54.0631 51.7853 54.3391 51.3767 54.271L32 51.0416L12.6233 54.271C12.2147 54.3391 11.8283 54.0631 11.7602 53.6545C11.6921 53.246 11.9681 52.8596 12.3767 52.7915L31.25 49.6459V46.9688H4.75C3.23122 46.9688 2 45.7375 2 44.2188V12.4688ZM59.25 45.4688H32H4.75C4.05964 45.4688 3.5 44.9091 3.5 44.2188V12.4688C3.5 11.7784 4.05964 11.2188 4.75 11.2188H59.25C59.9404 11.2188 60.5 11.7784 60.5 12.4688V44.2188C60.5 44.9091 59.9404 45.4688 59.25 45.4688ZM15.421 33.3437V25.2797H13.837V29.8157L13.873 30.9917H13.849L13.117 29.7317L10.405 25.2797H8.68904V33.3437H10.273V28.7957L10.249 27.6077H10.273L10.993 28.8677L13.705 33.3437H15.421ZM20.6643 33.3437H21.8283V29.8637C21.8283 29.3997 21.7843 29.0117 21.6963 28.6997C21.6163 28.3877 21.4763 28.1357 21.2763 27.9437C21.0843 27.7517 20.8283 27.6157 20.5083 27.5357C20.1883 27.4557 19.7963 27.4157 19.3323 27.4157C18.9003 27.4157 18.4923 27.4717 18.1083 27.5837C17.7323 27.6877 17.3643 27.8317 17.0043 28.0157L17.4483 29.1077C17.7523 28.9477 18.0523 28.8317 18.3483 28.7597C18.6523 28.6797 18.9323 28.6397 19.1883 28.6397C19.5963 28.6397 19.8763 28.7197 20.0283 28.8797C20.1883 29.0317 20.2683 29.2877 20.2683 29.6477V29.7437C20.1003 29.7277 19.9443 29.7197 19.8003 29.7197C19.6563 29.7117 19.5283 29.7077 19.4163 29.7077C18.4883 29.7077 17.8203 29.8597 17.4123 30.1637C17.0043 30.4677 16.8003 30.9317 16.8003 31.5557C16.8003 32.1797 16.9643 32.6557 17.2923 32.9837C17.6203 33.3037 18.1243 33.4637 18.8043 33.4637C19.1403 33.4637 19.4483 33.4157 19.7283 33.3197C20.0083 33.2157 20.2523 33.0757 20.4603 32.8997L20.6643 33.3437ZM19.7043 32.1197C19.4963 32.1997 19.3083 32.2397 19.1403 32.2397C18.6203 32.2397 18.3603 31.9997 18.3603 31.5197C18.3603 31.2797 18.4323 31.1117 18.5763 31.0157C18.7203 30.9117 18.9843 30.8597 19.3683 30.8597C19.5523 30.8597 19.7163 30.8637 19.8603 30.8717C20.0043 30.8797 20.1403 30.8917 20.2683 30.9077V31.8317C20.1083 31.9437 19.9203 32.0397 19.7043 32.1197ZM25.3883 27.5717C25.0924 27.6837 24.8284 27.8317 24.5963 28.0157L24.3683 27.5357H23.2043V33.3437H24.7643V28.9997C24.9723 28.8877 25.1723 28.8037 25.3643 28.7477C25.5644 28.6837 25.7803 28.6517 26.0124 28.6517C26.2923 28.6517 26.4923 28.7317 26.6123 28.8917C26.7403 29.0517 26.8043 29.3357 26.8043 29.7437V33.3437H28.3643V29.4677C28.3643 28.0917 27.7043 27.4037 26.3843 27.4037C26.0243 27.4037 25.6923 27.4597 25.3883 27.5717ZM30.1994 28.1357C29.7354 28.6157 29.5034 29.3837 29.5034 30.4397C29.5034 31.4957 29.7354 32.2637 30.1994 32.7437C30.6634 33.2237 31.3874 33.4637 32.3714 33.4637C33.3394 33.4637 34.0554 33.2197 34.5194 32.7317C34.9914 32.2437 35.2274 31.4797 35.2274 30.4397C35.2274 29.3997 34.9914 28.6357 34.5194 28.1477C34.0554 27.6597 33.3394 27.4157 32.3714 27.4157C31.3874 27.4157 30.6634 27.6557 30.1994 28.1357ZM31.3514 31.7597C31.1594 31.4557 31.0634 31.0157 31.0634 30.4397C31.0634 29.8637 31.1594 29.4237 31.3514 29.1197C31.5434 28.8157 31.8834 28.6637 32.3714 28.6637C32.8594 28.6637 33.1954 28.8157 33.3794 29.1197C33.5714 29.4237 33.6674 29.8637 33.6674 30.4397C33.6674 31.0157 33.5714 31.4557 33.3794 31.7597C33.1954 32.0637 32.8594 32.2157 32.3714 32.2157C31.8834 32.2157 31.5434 32.0637 31.3514 31.7597ZM41.4151 32.0237C41.0311 32.1277 40.6431 32.1797 40.2511 32.1797C39.4271 32.1797 38.8231 31.9397 38.4391 31.4597C38.0551 30.9717 37.8631 30.2557 37.8631 29.3117C37.8631 28.3197 38.0471 27.5957 38.4151 27.1397C38.7831 26.6757 39.3311 26.4437 40.0591 26.4437C40.4751 26.4437 40.8431 26.5157 41.1631 26.6597C41.4911 26.8037 41.7751 27.0077 42.0151 27.2717L42.8911 26.2877C42.5871 25.9517 42.1871 25.6797 41.6911 25.4717C41.2031 25.2637 40.6591 25.1597 40.0591 25.1597C38.8031 25.1597 37.8591 25.4957 37.2271 26.1677C36.5951 26.8397 36.2791 27.8877 36.2791 29.3117C36.2791 30.6397 36.5991 31.6637 37.2391 32.3837C37.8871 33.1037 38.8871 33.4637 40.2391 33.4637C40.7191 33.4637 41.1911 33.4077 41.6551 33.2957C42.1191 33.1837 42.5431 33.0237 42.9271 32.8157L42.5311 31.5677C42.1711 31.7597 41.7991 31.9117 41.4151 32.0237ZM44.5437 32.7317C45.0237 33.2197 45.7797 33.4637 46.8117 33.4637C47.2677 33.4637 47.6917 33.4037 48.0837 33.2837C48.4757 33.1637 48.8277 33.0117 49.1397 32.8277L48.7197 31.6517C48.3837 31.8437 48.0717 31.9877 47.7837 32.0837C47.4957 32.1717 47.1717 32.2157 46.8117 32.2157C46.3557 32.2157 46.0197 32.1077 45.8037 31.8917C45.5957 31.6757 45.4717 31.3477 45.4317 30.9077H49.1877V30.4397C49.1877 29.3837 48.9717 28.6157 48.5397 28.1357C48.1077 27.6557 47.4317 27.4157 46.5117 27.4157C45.5917 27.4157 44.9117 27.6557 44.4717 28.1357C44.0397 28.6157 43.8237 29.3837 43.8237 30.4397C43.8237 31.4797 44.0637 32.2437 44.5437 32.7317ZM47.2677 28.9517C47.4357 29.1437 47.5397 29.4077 47.5797 29.7437H45.4437C45.4837 29.4077 45.5877 29.1437 45.7557 28.9517C45.9237 28.7597 46.1757 28.6637 46.5117 28.6637C46.8557 28.6637 47.1077 28.7597 47.2677 28.9517ZM52.0718 31.6157V24.8717L50.5118 25.0397V31.6157C50.5118 32.2637 50.6479 32.7357 50.9198 33.0317C51.1998 33.3197 51.6158 33.4637 52.1679 33.4637C52.2799 33.4637 52.3679 33.4597 52.4319 33.4517C52.4958 33.4517 52.5718 33.4437 52.6599 33.4277V32.1677C52.4278 32.1677 52.2719 32.1357 52.1918 32.0717C52.1119 31.9997 52.0718 31.8477 52.0718 31.6157ZM55.3414 31.6157V24.8717L53.7814 25.0397V31.6157C53.7814 32.2637 53.9174 32.7357 54.1894 33.0317C54.4694 33.3197 54.8854 33.4637 55.4374 33.4637C55.5494 33.4637 55.6374 33.4597 55.7014 33.4517C55.7654 33.4517 55.8414 33.4437 55.9294 33.4277V32.1677C55.6974 32.1677 55.5414 32.1357 55.4614 32.0717C55.3814 31.9997 55.3414 31.8477 55.3414 31.6157Z" fill="black"/>
</svg>
