<svg width="64" height="64" viewBox="0 0 64 64" fill="none" xmlns="http://www.w3.org/2000/svg">
<g clip-path="url(#clip0_1456_172099)">
<path d="M18.65 40.3996C19.15 40.3996 19.55 39.9996 19.55 39.4996C19.55 38.9996 19.15 38.5996 18.65 38.5996C18.15 38.5996 17.75 38.9996 17.75 39.4996C17.75 39.9996 18.15 40.3996 18.65 40.3996Z" fill="black"/>
<path d="M22.1656 40.3996C22.6656 40.3996 23.0656 39.9996 23.0656 39.4996C23.0656 38.9996 22.6656 38.5996 22.1656 38.5996C21.6656 38.5996 21.2656 38.9996 21.2656 39.4996C21.2656 39.9996 21.6656 40.3996 22.1656 40.3996Z" fill="black"/>
<path d="M25.6812 40.3996C26.1812 40.3996 26.5812 39.9996 26.5812 39.4996C26.5812 38.9996 26.1812 38.5996 25.6812 38.5996C25.1812 38.5996 24.7812 38.9996 24.7812 39.4996C24.7812 39.9996 25.1812 40.3996 25.6812 40.3996Z" fill="black"/>
<path d="M59.25 36.5H16.75C15.65 36.5 14.75 37.4 14.75 38.5V40.5C14.75 41.6 15.65 42.5 16.75 42.5H59.25C60.35 42.5 61.25 41.6 61.25 40.5V38.5C61.25 37.4 60.35 36.5 59.25 36.5Z" stroke="black" stroke-width="1.5" stroke-miterlimit="10"/>
<path d="M50.3219 40.3996C50.8219 40.3996 51.2219 39.9996 51.2219 39.4996C51.2219 38.9996 50.8219 38.5996 50.3219 38.5996C49.8219 38.5996 49.4219 38.9996 49.4219 39.4996C49.4219 39.9996 49.8219 40.3996 50.3219 40.3996Z" fill="black"/>
<path d="M53.8297 40.3996C54.3297 40.3996 54.7297 39.9996 54.7297 39.4996C54.7297 38.9996 54.3297 38.5996 53.8297 38.5996C53.3297 38.5996 52.9297 38.9996 52.9297 39.4996C52.9297 39.9996 53.3297 40.3996 53.8297 40.3996Z" fill="black"/>
<path d="M57.3531 40.3996C57.8531 40.3996 58.2531 39.9996 58.2531 39.4996C58.2531 38.9996 57.8531 38.5996 57.3531 38.5996C56.8531 38.5996 56.4531 38.9996 56.4531 39.4996C56.4531 39.9996 56.8531 40.3996 57.3531 40.3996Z" fill="black"/>
<path d="M7.25 39.25C8.35457 39.25 9.25 38.3546 9.25 37.25C9.25 36.1454 8.35457 35.25 7.25 35.25C6.14543 35.25 5.25 36.1454 5.25 37.25C5.25 38.3546 6.14543 39.25 7.25 39.25Z" stroke="black" stroke-width="1.5" stroke-miterlimit="10"/>
<path d="M10.25 21.5H4.25C3.42157 21.5 2.75 22.1716 2.75 23V41C2.75 41.8284 3.42157 42.5 4.25 42.5H10.25C11.0784 42.5 11.75 41.8284 11.75 41V23C11.75 22.1716 11.0784 21.5 10.25 21.5Z" stroke="black" stroke-width="1.5" stroke-miterlimit="10"/>
</g>
<defs>
<clipPath id="clip0_1456_172099">
<rect width="60" height="22.5" fill="white" transform="translate(2 20.75)"/>
</clipPath>
</defs>
</svg>
