<svg width="64" height="64" viewBox="0 0 64 64" fill="none" xmlns="http://www.w3.org/2000/svg">
<path fill-rule="evenodd" clip-rule="evenodd" d="M2 14C2 12.4812 3.23122 11.25 4.75 11.25H59.25C60.7688 11.25 62 12.4812 62 14V46C62 47.5188 60.7688 48.75 59.25 48.75H4.75C3.23122 48.75 2 47.5188 2 46V14ZM4.75 12.75C4.05964 12.75 3.5 13.3096 3.5 14V46C3.5 46.6904 4.05964 47.25 4.75 47.25H59.25C59.9404 47.25 60.5 46.6904 60.5 46V14C60.5 13.3096 59.9404 12.75 59.25 12.75H4.75ZM10.5966 34.1191C9.95659 34.1191 9.40859 34.0231 8.95259 33.8311C8.49659 33.6311 8.12059 33.3511 7.82459 32.9911C7.52859 32.6311 7.30859 32.1951 7.16459 31.6831C7.02859 31.1711 6.96059 30.5991 6.96059 29.9671C6.96059 28.5671 7.27259 27.5271 7.89659 26.8471C8.52859 26.1591 9.42859 25.8151 10.5966 25.8151C11.7886 25.8151 12.6886 26.1591 13.2966 26.8471C13.9126 27.5271 14.2206 28.5671 14.2206 29.9671C14.2206 31.3831 13.9166 32.4311 13.3086 33.1111C12.7086 33.7831 11.8046 34.1191 10.5966 34.1191ZM12.6366 29.9671C12.6366 28.9351 12.4646 28.1991 12.1206 27.7591C11.7766 27.3191 11.2686 27.0991 10.5966 27.0991C9.92459 27.0991 9.41259 27.3191 9.06059 27.7591C8.71659 28.1991 8.54459 28.9351 8.54459 29.9671C8.54459 30.4871 8.58859 30.9311 8.67659 31.2991C8.76459 31.6591 8.89259 31.9551 9.06059 32.1871C9.23659 32.4111 9.45259 32.5751 9.70859 32.6791C9.96459 32.7831 10.2606 32.8351 10.5966 32.8351C10.9326 32.8351 11.2286 32.7831 11.4846 32.6791C11.7406 32.5751 11.9526 32.4111 12.1206 32.1871C12.2886 31.9551 12.4166 31.6591 12.5046 31.2991C12.5926 30.9311 12.6366 30.4871 12.6366 29.9671ZM20.8227 32.7151V33.9991H15.6987V25.9351H17.2827V32.7151H20.8227ZM27.2633 32.7151V33.9991H21.8393V25.9351H27.1433V27.2191H23.4233V29.1631H27.0113V30.4231H23.4233V32.7151H27.2633ZM35.5797 29.9671C35.5797 31.3351 35.2157 32.3511 34.4877 33.0151C33.7677 33.6711 32.7317 33.9991 31.3797 33.9991H28.8237V25.9351H31.3797C32.7237 25.9351 33.7597 26.2711 34.4877 26.9431C35.2157 27.6071 35.5797 28.6151 35.5797 29.9671ZM30.4077 27.2191V32.7151H31.3677C32.1917 32.7151 32.8357 32.4951 33.2997 32.0551C33.7637 31.6151 33.9957 30.9191 33.9957 29.9671C33.9957 29.0151 33.7637 28.3191 33.2997 27.8791C32.8357 27.4391 32.1917 27.2191 31.3677 27.2191H30.4077ZM42.9815 34.1191C41.9495 34.1191 41.1935 33.8751 40.7135 33.3871C40.2335 32.8991 39.9935 32.1351 39.9935 31.0951C39.9935 30.0391 40.2095 29.2711 40.6415 28.7911C41.0815 28.3111 41.7615 28.0711 42.6815 28.0711C43.6015 28.0711 44.2775 28.3111 44.7095 28.7911C45.1415 29.2711 45.3575 30.0391 45.3575 31.0951V31.5631H41.6015C41.6415 32.0031 41.7655 32.3311 41.9735 32.5471C42.1895 32.7631 42.5255 32.8711 42.9815 32.8711C43.3415 32.8711 43.6655 32.8271 43.9535 32.7391C44.2415 32.6431 44.5535 32.4991 44.8895 32.3071L45.3095 33.4831C44.9975 33.6671 44.6455 33.8191 44.2535 33.9391C43.8615 34.0591 43.4375 34.1191 42.9815 34.1191ZM43.7495 30.3991C43.7095 30.0631 43.6055 29.7991 43.4375 29.6071C43.2775 29.4151 43.0255 29.3191 42.6815 29.3191C42.3455 29.3191 42.0935 29.4151 41.9255 29.6071C41.7575 29.7991 41.6535 30.0631 41.6135 30.3991H43.7495ZM48.1696 33.9991L45.9616 28.1911H47.5696L48.4816 30.7831L48.9616 32.2711H48.9976L49.4416 30.7831L50.3536 28.1911H51.9616L49.7536 33.9991H48.1696ZM52.4154 31.0951C52.4154 30.0391 52.6474 29.2711 53.1114 28.7911C53.5754 28.3111 54.2994 28.0711 55.2834 28.0711C56.2514 28.0711 56.9674 28.3151 57.4314 28.8031C57.9034 29.2911 58.1394 30.0551 58.1394 31.0951C58.1394 32.1351 57.9034 32.8991 57.4314 33.3871C56.9674 33.8751 56.2514 34.1191 55.2834 34.1191C54.2994 34.1191 53.5754 33.8791 53.1114 33.3991C52.6474 32.9191 52.4154 32.1511 52.4154 31.0951ZM53.9754 31.0951C53.9754 31.6711 54.0714 32.1111 54.2634 32.4151C54.4554 32.7191 54.7954 32.8711 55.2834 32.8711C55.7714 32.8711 56.1074 32.7191 56.2914 32.4151C56.4834 32.1111 56.5794 31.6711 56.5794 31.0951C56.5794 30.5191 56.4834 30.0791 56.2914 29.7751C56.1074 29.4711 55.7714 29.3191 55.2834 29.3191C54.7954 29.3191 54.4554 29.4711 54.2634 29.7751C54.0714 30.0791 53.9754 30.5191 53.9754 31.0951ZM23 51.2501C22.5858 51.2501 22.25 51.5859 22.25 52.0001C22.25 52.4143 22.5858 52.7501 23 52.7501H41C41.4142 52.7501 41.75 52.4143 41.75 52.0001C41.75 51.5859 41.4142 51.2501 41 51.2501H23Z" fill="black"/>
</svg>
